<svg width="10" height="12" viewBox="0 0 10 12" fill="none" xmlns="http://www.w3.org/2000/svg">
<path d="M1.22929 11.7667C1.32366 11.8158 1.4296 11.8383 1.53577 11.8317C1.64193 11.8251 1.74429 11.7897 1.83188 11.7294L9.41521 6.47938C9.4927 6.4257 9.55602 6.35403 9.59976 6.27053C9.6435 6.18702 9.66634 6.09415 9.66634 5.99988C9.66634 5.90562 9.6435 5.81275 9.59976 5.72924C9.55602 5.64573 9.4927 5.57407 9.41521 5.52038L1.83188 0.270385C1.74436 0.20983 1.64195 0.174371 1.53573 0.167846C1.4295 0.161321 1.32352 0.183978 1.22925 0.233366C1.13498 0.282753 1.05602 0.356988 1.00092 0.448033C0.945811 0.539078 0.916662 0.643462 0.916626 0.749885V11.2499C0.916608 11.3564 0.945736 11.4608 1.00085 11.5519C1.05597 11.643 1.13497 11.7173 1.22929 11.7667Z" fill="white"/>
</svg>
