<svg aria-hidden="true" style="position: absolute; width: 0; height: 0; overflow: hidden;" version="1.1" xmlns="http://www.w3.org/2000/svg" xmlns:xlink="http://www.w3.org/1999/xlink">
<defs>
<symbol id="icon-burger" viewBox="0 0 47 32"><path stroke-linejoin="round" stroke-linecap="round" stroke-miterlimit="4" stroke-width="4.3636" d="M1.96 29.154h42.965M1.96 15.615h42.965M1.96 2.077h42.965"></path></symbol>
<symbol id="icon-facebook" viewBox="0 0 32 32">
<path d="M22.4 2.666h-4c-1.768 0-3.464 0.702-4.714 1.953s-1.953 2.946-1.953 4.714v4h-4v5.333h4v10.667h5.333v-10.667h4l1.333-5.333h-5.333v-4c0-0.354 0.14-0.693 0.391-0.943s0.589-0.391 0.943-0.391h4v-5.333z"></path>
</symbol>
<symbol id="icon-linkedin" viewBox="0 0 32 32">
<path d="M8.268 28h-5.805v-18.694h5.805v18.694zM5.362 6.756c-1.856 0-3.362-1.538-3.362-3.394 0-0.892 0.354-1.747 0.985-2.377s1.486-0.985 2.377-0.985c0.892 0 1.747 0.354 2.377 0.985s0.985 1.486 0.985 2.377c0 1.856-1.506 3.394-3.362 3.394zM29.994 28h-5.792v-9.1c0-2.169-0.044-4.95-3.018-4.95-3.018 0-3.481 2.356-3.481 4.794v9.256h-5.799v-18.694h5.567v2.55h0.081c0.775-1.469 2.668-3.019 5.492-3.019 5.875 0 6.955 3.869 6.955 8.894v10.269h-0.005z"></path>
</symbol>
<symbol id="icon-twitter" viewBox="0 0 32 32">
<path d="M31.704 3.555c-1.316 0.928-2.772 1.638-4.314 2.102-0.827-0.951-1.927-1.626-3.15-1.932s-2.511-0.229-3.688 0.221c-1.178 0.45-2.189 1.25-2.897 2.293s-1.079 2.278-1.062 3.539v1.374c-2.414 0.063-4.806-0.473-6.963-1.559s-4.012-2.688-5.4-4.664c0 0-5.495 12.364 6.869 17.859-2.829 1.92-6.199 2.883-9.616 2.747 12.364 6.869 27.475 0 27.475-15.798-0.001-0.383-0.038-0.764-0.11-1.14 1.402-1.383 2.391-3.128 2.857-5.042z"></path>
</symbol>
<symbol id="icon-arrow-hero" viewBox="0 0 18 32">
<path fill="#fff" style="fill: var(--color1, #fff)" d="M0.914 26.286l10.286-10.286-10.286-10.286 2.057-4.114 14.4 14.4-14.4 14.4-2.057-4.114z"></path>
</symbol>
<symbol id="icon-button-close-mobile-menu" viewBox="0 0 32 32">
<path d="M28.614 1.13l-12.614 12.614-12.614-12.614c-0.303-0.278-0.702-0.427-1.113-0.418s-0.803 0.176-1.094 0.467c-0.291 0.291-0.458 0.683-0.467 1.094s0.141 0.81 0.418 1.113l12.608 12.614-12.611 12.611c-0.154 0.147-0.277 0.323-0.362 0.518s-0.13 0.405-0.133 0.618 0.037 0.424 0.117 0.621c0.080 0.197 0.199 0.376 0.349 0.527s0.329 0.27 0.526 0.35 0.408 0.121 0.621 0.118c0.213-0.002 0.423-0.047 0.618-0.132s0.372-0.208 0.519-0.361l12.618-12.611 12.614 12.614c0.303 0.278 0.702 0.428 1.113 0.418s0.803-0.176 1.094-0.467c0.291-0.291 0.458-0.683 0.467-1.094s-0.141-0.81-0.418-1.113l-12.614-12.614 12.614-12.618c0.154-0.147 0.277-0.323 0.362-0.518s0.13-0.405 0.133-0.618c0.003-0.213-0.037-0.424-0.117-0.621s-0.199-0.376-0.349-0.527c-0.15-0.151-0.329-0.27-0.526-0.35s-0.408-0.121-0.621-0.118-0.423 0.047-0.618 0.132c-0.195 0.085-0.372 0.208-0.519 0.362v0.003z"></path>
</symbol>
<symbol id="icon-apple" viewBox="0 0 32 32">
<path d="M9.437 31.4c-0.631-0.421-1.191-0.937-1.659-1.533-0.511-0.617-0.984-1.267-1.419-1.939-1.021-1.493-1.82-3.127-2.373-4.848-0.667-2.003-0.991-3.92-0.991-5.796 0-2.093 0.453-3.92 1.336-5.453 0.653-1.2 1.627-2.204 2.8-2.909 1.133-0.707 2.453-1.093 3.787-1.12 0.467 0 0.973 0.067 1.507 0.2 0.387 0.107 0.853 0.28 1.427 0.493 0.733 0.28 1.133 0.453 1.267 0.493 0.427 0.16 0.787 0.227 1.067 0.227 0.213 0 0.52-0.067 0.86-0.173 0.193-0.067 0.56-0.187 1.080-0.413 0.515-0.187 0.923-0.347 1.247-0.467 0.493-0.147 0.971-0.28 1.4-0.347 0.52-0.080 1.036-0.107 1.531-0.067 0.947 0.067 1.813 0.267 2.587 0.56 1.36 0.547 2.457 1.4 3.276 2.613-0.347 0.213-0.667 0.461-0.967 0.733-0.649 0.573-1.2 1.253-1.64 2.007-0.573 1.027-0.867 2.187-0.859 3.36 0.020 1.444 0.387 2.713 1.12 3.813 0.516 0.8 1.205 1.485 2.045 2.048 0.413 0.28 0.776 0.473 1.12 0.6-0.16 0.5-0.336 0.987-0.54 1.467-0.463 1.076-1.013 2.107-1.667 3.080-0.576 0.84-1.029 1.467-1.373 1.88-0.536 0.64-1.053 1.12-1.573 1.463-0.573 0.38-1.247 0.581-1.936 0.581-0.467 0.020-0.933-0.040-1.379-0.169-0.387-0.127-0.768-0.269-1.141-0.431-0.391-0.179-0.795-0.331-1.207-0.453-0.507-0.133-1.027-0.197-1.552-0.196-0.533 0-1.053 0.067-1.547 0.193-0.413 0.117-0.813 0.261-1.209 0.433-0.56 0.233-0.927 0.387-1.14 0.453-0.432 0.128-0.875 0.205-1.32 0.233-0.693 0-1.339-0.2-1.964-0.617zM18.576 6.787c-0.907 0.453-1.768 0.645-2.631 0.581-0.133-0.861 0-1.747 0.36-2.716 0.32-0.827 0.747-1.573 1.333-2.24 0.613-0.693 1.347-1.267 2.173-1.68 0.88-0.453 1.72-0.693 2.52-0.733 0.107 0.907 0 1.8-0.333 2.76-0.304 0.853-0.757 1.64-1.333 2.347-0.58 0.693-1.3 1.267-2.089 1.681z"></path>
</symbol>
<symbol id="icon-android" viewBox="0 0 22 28">
<path d="M7.703 7.547c0.344 0 0.609-0.281 0.609-0.609s-0.266-0.609-0.609-0.609c-0.328 0-0.594 0.281-0.594 0.609s0.266 0.609 0.594 0.609zM14.297 7.547c0.328 0 0.594-0.281 0.594-0.609s-0.266-0.609-0.594-0.609c-0.344 0-0.609 0.281-0.609 0.609s0.266 0.609 0.609 0.609zM1.609 10.422c0.875 0 1.594 0.719 1.594 1.594v6.719c0 0.891-0.703 1.609-1.594 1.609s-1.609-0.719-1.609-1.609v-6.719c0-0.875 0.719-1.594 1.609-1.594zM18.172 10.719v10.406c0 0.953-0.766 1.719-1.703 1.719h-1.172v3.547c0 0.891-0.719 1.609-1.609 1.609s-1.609-0.719-1.609-1.609v-3.547h-2.156v3.547c0 0.891-0.719 1.609-1.609 1.609-0.875 0-1.594-0.719-1.594-1.609l-0.016-3.547h-1.156c-0.953 0-1.719-0.766-1.719-1.719v-10.406h14.344zM14.547 4.391c2.188 1.125 3.672 3.281 3.672 5.766h-14.453c0-2.484 1.484-4.641 3.687-5.766l-1.109-2.047c-0.063-0.109-0.031-0.25 0.078-0.313 0.109-0.047 0.25-0.016 0.313 0.094l1.125 2.063c0.953-0.422 2.016-0.656 3.141-0.656s2.188 0.234 3.141 0.656l1.125-2.063c0.063-0.109 0.203-0.141 0.313-0.094 0.109 0.063 0.141 0.203 0.078 0.313zM22 12.016v6.719c0 0.891-0.719 1.609-1.609 1.609-0.875 0-1.594-0.719-1.594-1.609v-6.719c0-0.891 0.719-1.594 1.594-1.594 0.891 0 1.609 0.703 1.609 1.594z"></path>
</symbol>
<symbol id="icon-file-download" viewBox="0 0 24 32">
<path d="M14.088 8.425v-8.425h-12.579c-0.836 0-1.509 0.663-1.509 1.487v28.743c0 0.824 0.673 1.487 1.509 1.487h21.132c0.836 0 1.509-0.663 1.509-1.487v-20.318h-8.553c-0.83 0-1.509-0.669-1.509-1.487zM18.896 21.518l-6.064 5.928c-0.418 0.409-1.094 0.409-1.512 0l-6.064-5.928c-0.638-0.624-0.191-1.695 0.708-1.695h4.099v-4.956c0-0.548 0.45-0.991 1.006-0.991h2.013c0.556 0 1.006 0.444 1.006 0.991v4.956h4.099c0.898 0 1.346 1.071 0.709 1.695zM23.711 6.504l-6.157-6.071c-0.283-0.279-0.667-0.434-1.069-0.434h-0.384v7.929h8.050v-0.378c0-0.39-0.157-0.768-0.44-1.047z"></path>
</symbol>
</defs>
</svg>
